<svg width="20.000000" height="22.000000" viewBox="0 0 20 22" fill="none" xmlns="http://www.w3.org/2000/svg" xmlns:xlink="http://www.w3.org/1999/xlink">
	<desc>
			Created with Pixso.
	</desc>
	<defs>
		<clipPath id="clip2_17">
			<rect id="Frame" rx="0.000000" width="19.000000" height="21.000000" transform="translate(0.500000 0.500000)" fill="white" fill-opacity="0"/>
		</clipPath>
	</defs>
	<rect id="Frame" rx="0.000000" width="19.000000" height="21.000000" transform="translate(0.500000 0.500000)" fill="#FFFFFF" fill-opacity="0"/>
	<g clip-path="url(#clip2_17)">
		<path id="Vector" d="M19.72 19.14L18 4.4L14.81 4.4C14.43 2.14 12.43 0.44 10 0.44C7.56 0.44 5.56 2.14 5.18 4.4L2 4.4L0.27 19.14C0.16 19.96 0.48 20.45 0.75 20.79C1.02 21.06 1.51 21.45 2.43 21.45L17.56 21.45C18.27 21.45 18.86 21.23 19.24 20.73C19.62 20.35 19.78 19.74 19.72 19.14ZM10 2.64C11.18 2.64 12.21 3.41 12.54 4.4L7.4 4.4C7.78 3.35 8.81 2.64 10 2.64ZM2.43 19.25L3.94 6.6L5.13 6.6L5.13 8.25C5.13 8.85 5.62 9.35 6.21 9.35C6.81 9.35 7.29 8.85 7.29 8.25L7.29 6.6L12.7 6.6L12.7 8.25C12.7 8.85 13.18 9.35 13.78 9.35C14.37 9.35 14.86 8.85 14.86 8.25L14.86 6.6L16.05 6.6L17.56 19.25L2.43 19.25Z" fill="#000000" fill-opacity="1.000000" fill-rule="nonzero"/>
	</g>
</svg>