<svg width="16.501526" height="16.501465" viewBox="0 0 16.5015 16.5015" fill="none" xmlns="http://www.w3.org/2000/svg" xmlns:xlink="http://www.w3.org/1999/xlink">
	<desc>
			Created with Pixso.
	</desc>
	<defs/>
	<path id="Vector" d="M16.5 14.66L11.77 9.94C12.65 8.61 13 7.01 12.75 5.44C12.51 3.87 11.7 2.44 10.46 1.44C9.23 0.43 7.67 -0.08 6.09 0C4.5 0.08 3 0.75 1.87 1.87C0.75 3 0.08 4.5 0 6.09C-0.08 7.67 0.43 9.23 1.44 10.46C2.44 11.7 3.87 12.51 5.44 12.75C7.01 13 8.61 12.65 9.94 11.77L14.66 16.5L16.5 14.66ZM1.83 6.41C1.83 3.89 3.89 1.83 6.41 1.83C8.94 1.83 11 3.89 11 6.41C11 8.94 8.94 11 6.41 11C3.89 11 1.83 8.94 1.83 6.41Z" fill="#FFFFFF" fill-opacity="1.000000" fill-rule="nonzero"/>
</svg>
