<svg width="13.359985" height="13.333496" viewBox="0 0 13.36 13.3335" fill="none" xmlns="http://www.w3.org/2000/svg" xmlns:xlink="http://www.w3.org/1999/xlink">
	<desc>
			Created with Pixso.
	</desc>
	<defs/>
	<path id="Vector" d="M10.26 13.33C7.54 13.32 4.93 12.24 3.01 10.32C1.08 8.39 0 5.78 0 3.06C0 2.25 0.32 1.47 0.89 0.89C1.47 0.32 2.25 0 3.06 0C3.23 -0.01 3.41 0.01 3.58 0.04C3.74 0.07 3.9 0.11 4.06 0.16C4.16 0.2 4.26 0.27 4.34 0.35C4.41 0.44 4.47 0.55 4.49 0.66L5.4 4.66C5.43 4.77 5.42 4.88 5.39 4.99C5.36 5.1 5.31 5.2 5.23 5.28C5.14 5.37 5.14 5.38 4.32 5.8C4.97 7.24 6.12 8.4 7.56 9.06C8 8.23 8 8.23 8.09 8.14C8.17 8.06 8.27 8.01 8.38 7.98C8.49 7.95 8.6 7.94 8.71 7.97L12.71 8.88C12.82 8.91 12.92 8.96 13 9.04C13.09 9.11 13.15 9.21 13.19 9.32C13.24 9.47 13.29 9.64 13.32 9.8C13.34 9.97 13.36 10.14 13.36 10.31C13.34 11.12 13.01 11.89 12.43 12.46C11.85 13.02 11.07 13.34 10.26 13.33ZM3.06 1.33C2.6 1.33 2.16 1.51 1.84 1.84C1.51 2.16 1.33 2.6 1.33 3.06C1.33 5.43 2.27 7.7 3.95 9.38C5.62 11.05 7.89 11.99 10.26 12C10.72 11.99 11.16 11.81 11.49 11.49C11.81 11.16 11.99 10.72 12 10.26L12 10.04L8.9 9.33L8.71 9.7C8.41 10.28 8.19 10.7 7.63 10.47C6.52 10.07 5.52 9.44 4.69 8.61C3.86 7.77 3.23 6.77 2.84 5.66C2.6 5.14 3.06 4.9 3.63 4.6L4 4.42L3.28 1.33L3.06 1.33Z" fill="#969696" fill-opacity="1.000000" fill-rule="nonzero"/>
</svg>
